M48
;GenerationSoftware,Autodesk,EAGLE,9.6.2*%
;CreationDate,2023-03-06T06:09:55Z*%
FMAT,2
ICI,OFF
METRIC,TZ,000.000
T14C0.350
T13C0.700
T12C0.800
T11C0.813
T10C0.900
T9C1.000
T8C1.100
T7C1.321
T6C1.500
T5C1.600
T4C1.800
T3C2.500
T2C2.540
T1C3.200
%
G90
M71
T1
X2500Y67500
X104500Y2500
X104500Y67500
X2500Y2500
T2
X8001Y26670
X8001Y44450
T3
X53721Y26670
X53721Y44450
T4
X25146Y60270
T5
X25146Y64770
T6
X8255Y14999
X8255Y7549
T7
X14605Y2540
X18415Y67437
X59690Y19685
X69850Y19685
X52070Y60325
T8
X5441Y59055
X2941Y59055
X66802Y63143
X70302Y68143
X66802Y68143
X70302Y63143
T9
X37211Y25400
X39751Y25400
X47371Y45720
X49911Y45720
X19431Y45720
X44831Y45720
X42291Y45720
X14351Y45720
X11811Y45720
X16891Y45720
X21971Y45720
X24511Y45720
X27051Y45720
X29591Y45720
X32131Y45720
X34671Y45720
X37211Y45720
X39751Y45720
X11811Y25400
X14351Y25400
X16891Y25400
X19431Y25400
X21971Y25400
X24511Y25400
X27051Y25400
X29591Y25400
X32131Y25400
X34671Y25400
T10
X10961Y53975
X2361Y53975
T11
X18145Y51689
X16145Y51689
T12
X22923Y4459
X98806Y50515
X96806Y26735
X10795Y66484
X10795Y64484
X10795Y62484
X10795Y60484
X10795Y58484
X96806Y38735
X96806Y36735
X96806Y34735
X96806Y32735
X96806Y30735
X96806Y28735
X96806Y24735
X96806Y22735
X96806Y20735
X96806Y18735
X96806Y16735
X96806Y14735
X98806Y14735
X98806Y16735
X98806Y18735
X98806Y20735
X98806Y22735
X98806Y24735
X98806Y26735
X98806Y28735
X98806Y30735
X98806Y32735
X98806Y34735
X98806Y36735
X98806Y38735
X96806Y56515
X96806Y54515
X96806Y52515
X96806Y50515
X96806Y48515
X96806Y46515
X96806Y44515
X98806Y44515
X98806Y46515
X98806Y48515
X98806Y52515
X98806Y54515
X98806Y56515
X53848Y10459
X53848Y8459
X53848Y6459
X53848Y4459
X38037Y10459
X38037Y8459
X38037Y6459
X38037Y4459
X45720Y10459
X45720Y8459
X45720Y6459
X45720Y4459
X30607Y10459
X30607Y8459
X30607Y6459
X30607Y4459
X22923Y10459
X22923Y8459
X22923Y6459
T13
X10541Y50800
X9449Y49708
X8331Y50800
X7239Y49708
X6147Y50800
X5029Y49708
X3937Y50800
X2845Y49708
T14
X56261Y14478
X13716Y60325
X90932Y12954
X90932Y51562
X90932Y39497
X90932Y26035
X76073Y13462
X81280Y13462
X80391Y49657
X88011Y49657
X81661Y40132
X81407Y26797
X51435Y67310
X51435Y66040
X51435Y64770
X51435Y63500
X51435Y62230
X72390Y60579
X75819Y60579
X97282Y62230
X98425Y62230
X102108Y35052
X104394Y32766
X99568Y12065
X98425Y12065
X32639Y54991
X46863Y66294
X59182Y37973
X29591Y21209
X27051Y20066
X25146Y21209
X28956Y31496
X32131Y28956
X34544Y39116
X6985Y48133
X11049Y40894
X8763Y35433
X79121Y7239
X79121Y17653
X79121Y31369
X79121Y44196
X72136Y9652
X80391Y4572
X80391Y17653
X80391Y31369
X80391Y44196
X71247Y8890
X83566Y53340
X82296Y53086
X81500Y17000
X84000Y17000
X94349Y12373
X101500Y20000
X92000Y16500
X86000Y9500
X84500Y9500
X83500Y9500
X82000Y9500
X85000Y6000
X17145Y29210
X45085Y42672
X42291Y37465
X47117Y33401
X49403Y35560
X56388Y30988
X93980Y50800
X92202Y56515
X78867Y56642
X70612Y49276
X73533Y50800
X73787Y48133
X80899Y46228
X92329Y43180
X91821Y28956
X78613Y54737
X72771Y26670
X77216Y26670
X95758Y2540
X94107Y2540
X92329Y2540
X74041Y4318
X71501Y3429
X38989Y47879
X24511Y52324
X63754Y36830
X103251Y33909
X76073Y4953
X76073Y3683
X76073Y2540
X7112Y31115
X19050Y18923
X26289Y28194
X28321Y28829
X17145Y20066
X68580Y52324
X57150Y40767
X69850Y52324
X58420Y40767
X7239Y39116
X18796Y61849
X84836Y13716
X83820Y57150
X20320Y23368
X5715Y42926
X12446Y49530
X52197Y18796
X14859Y56007
X68834Y5461
X76835Y12192
X5207Y54483
X2413Y47625
X14097Y36957
X88138Y13843
X87000Y5500
X86000Y6000
X74549Y11049
M30