G04 EAGLE Gerber RS-274X export*
G75*
%MOMM*%
%FSLAX34Y34*%
%LPD*%
%IN*%
%IPPOS*%
%AMOC8*
5,1,8,0,0,1.08239X$1,22.5*%
G01*
%ADD10C,0.254000*%


D10*
X460Y0D02*
X1070000Y0D01*
X1070000Y700000D01*
X460Y700000D01*
X460Y0D01*
X41000Y24476D02*
X40932Y23431D01*
X40795Y22392D01*
X40590Y21365D01*
X40319Y20353D01*
X39983Y19361D01*
X39582Y18393D01*
X39118Y17454D01*
X38595Y16546D01*
X38013Y15675D01*
X37375Y14844D01*
X36684Y14057D01*
X35943Y13316D01*
X35156Y12625D01*
X34325Y11988D01*
X33454Y11406D01*
X32546Y10882D01*
X31607Y10418D01*
X30639Y10017D01*
X29647Y9681D01*
X28635Y9410D01*
X27608Y9205D01*
X26569Y9069D01*
X25524Y9000D01*
X24476Y9000D01*
X23431Y9069D01*
X22392Y9205D01*
X21365Y9410D01*
X20353Y9681D01*
X19361Y10017D01*
X18393Y10418D01*
X17454Y10882D01*
X16546Y11406D01*
X15675Y11988D01*
X14844Y12625D01*
X14057Y13316D01*
X13316Y14057D01*
X12625Y14844D01*
X11988Y15675D01*
X11406Y16546D01*
X10882Y17454D01*
X10418Y18393D01*
X10017Y19361D01*
X9681Y20353D01*
X9410Y21365D01*
X9205Y22392D01*
X9069Y23431D01*
X9000Y24476D01*
X9000Y25524D01*
X9069Y26569D01*
X9205Y27608D01*
X9410Y28635D01*
X9681Y29647D01*
X10017Y30639D01*
X10418Y31607D01*
X10882Y32546D01*
X11406Y33454D01*
X11988Y34325D01*
X12625Y35156D01*
X13316Y35943D01*
X14057Y36684D01*
X14844Y37375D01*
X15675Y38013D01*
X16546Y38595D01*
X17454Y39118D01*
X18393Y39582D01*
X19361Y39983D01*
X20353Y40319D01*
X21365Y40590D01*
X22392Y40795D01*
X23431Y40932D01*
X24476Y41000D01*
X25524Y41000D01*
X26569Y40932D01*
X27608Y40795D01*
X28635Y40590D01*
X29647Y40319D01*
X30639Y39983D01*
X31607Y39582D01*
X32546Y39118D01*
X33454Y38595D01*
X34325Y38013D01*
X35156Y37375D01*
X35943Y36684D01*
X36684Y35943D01*
X37375Y35156D01*
X38013Y34325D01*
X38595Y33454D01*
X39118Y32546D01*
X39582Y31607D01*
X39983Y30639D01*
X40319Y29647D01*
X40590Y28635D01*
X40795Y27608D01*
X40932Y26569D01*
X41000Y25524D01*
X41000Y24476D01*
X41000Y674476D02*
X40932Y673431D01*
X40795Y672392D01*
X40590Y671365D01*
X40319Y670353D01*
X39983Y669361D01*
X39582Y668393D01*
X39118Y667454D01*
X38595Y666546D01*
X38013Y665675D01*
X37375Y664844D01*
X36684Y664057D01*
X35943Y663316D01*
X35156Y662625D01*
X34325Y661988D01*
X33454Y661406D01*
X32546Y660882D01*
X31607Y660418D01*
X30639Y660017D01*
X29647Y659681D01*
X28635Y659410D01*
X27608Y659205D01*
X26569Y659069D01*
X25524Y659000D01*
X24476Y659000D01*
X23431Y659069D01*
X22392Y659205D01*
X21365Y659410D01*
X20353Y659681D01*
X19361Y660017D01*
X18393Y660418D01*
X17454Y660882D01*
X16546Y661406D01*
X15675Y661988D01*
X14844Y662625D01*
X14057Y663316D01*
X13316Y664057D01*
X12625Y664844D01*
X11988Y665675D01*
X11406Y666546D01*
X10882Y667454D01*
X10418Y668393D01*
X10017Y669361D01*
X9681Y670353D01*
X9410Y671365D01*
X9205Y672392D01*
X9069Y673431D01*
X9000Y674476D01*
X9000Y675524D01*
X9069Y676569D01*
X9205Y677608D01*
X9410Y678635D01*
X9681Y679647D01*
X10017Y680639D01*
X10418Y681607D01*
X10882Y682546D01*
X11406Y683454D01*
X11988Y684325D01*
X12625Y685156D01*
X13316Y685943D01*
X14057Y686684D01*
X14844Y687375D01*
X15675Y688013D01*
X16546Y688595D01*
X17454Y689118D01*
X18393Y689582D01*
X19361Y689983D01*
X20353Y690319D01*
X21365Y690590D01*
X22392Y690795D01*
X23431Y690932D01*
X24476Y691000D01*
X25524Y691000D01*
X26569Y690932D01*
X27608Y690795D01*
X28635Y690590D01*
X29647Y690319D01*
X30639Y689983D01*
X31607Y689582D01*
X32546Y689118D01*
X33454Y688595D01*
X34325Y688013D01*
X35156Y687375D01*
X35943Y686684D01*
X36684Y685943D01*
X37375Y685156D01*
X38013Y684325D01*
X38595Y683454D01*
X39118Y682546D01*
X39582Y681607D01*
X39983Y680639D01*
X40319Y679647D01*
X40590Y678635D01*
X40795Y677608D01*
X40932Y676569D01*
X41000Y675524D01*
X41000Y674476D01*
X1061000Y674476D02*
X1060932Y673431D01*
X1060795Y672392D01*
X1060590Y671365D01*
X1060319Y670353D01*
X1059983Y669361D01*
X1059582Y668393D01*
X1059118Y667454D01*
X1058595Y666546D01*
X1058013Y665675D01*
X1057375Y664844D01*
X1056684Y664057D01*
X1055943Y663316D01*
X1055156Y662625D01*
X1054325Y661988D01*
X1053454Y661406D01*
X1052546Y660882D01*
X1051607Y660418D01*
X1050639Y660017D01*
X1049647Y659681D01*
X1048635Y659410D01*
X1047608Y659205D01*
X1046569Y659069D01*
X1045524Y659000D01*
X1044476Y659000D01*
X1043431Y659069D01*
X1042392Y659205D01*
X1041365Y659410D01*
X1040353Y659681D01*
X1039361Y660017D01*
X1038393Y660418D01*
X1037454Y660882D01*
X1036546Y661406D01*
X1035675Y661988D01*
X1034844Y662625D01*
X1034057Y663316D01*
X1033316Y664057D01*
X1032625Y664844D01*
X1031988Y665675D01*
X1031406Y666546D01*
X1030882Y667454D01*
X1030418Y668393D01*
X1030017Y669361D01*
X1029681Y670353D01*
X1029410Y671365D01*
X1029205Y672392D01*
X1029069Y673431D01*
X1029000Y674476D01*
X1029000Y675524D01*
X1029069Y676569D01*
X1029205Y677608D01*
X1029410Y678635D01*
X1029681Y679647D01*
X1030017Y680639D01*
X1030418Y681607D01*
X1030882Y682546D01*
X1031406Y683454D01*
X1031988Y684325D01*
X1032625Y685156D01*
X1033316Y685943D01*
X1034057Y686684D01*
X1034844Y687375D01*
X1035675Y688013D01*
X1036546Y688595D01*
X1037454Y689118D01*
X1038393Y689582D01*
X1039361Y689983D01*
X1040353Y690319D01*
X1041365Y690590D01*
X1042392Y690795D01*
X1043431Y690932D01*
X1044476Y691000D01*
X1045524Y691000D01*
X1046569Y690932D01*
X1047608Y690795D01*
X1048635Y690590D01*
X1049647Y690319D01*
X1050639Y689983D01*
X1051607Y689582D01*
X1052546Y689118D01*
X1053454Y688595D01*
X1054325Y688013D01*
X1055156Y687375D01*
X1055943Y686684D01*
X1056684Y685943D01*
X1057375Y685156D01*
X1058013Y684325D01*
X1058595Y683454D01*
X1059118Y682546D01*
X1059582Y681607D01*
X1059983Y680639D01*
X1060319Y679647D01*
X1060590Y678635D01*
X1060795Y677608D01*
X1060932Y676569D01*
X1061000Y675524D01*
X1061000Y674476D01*
X1061000Y24476D02*
X1060932Y23431D01*
X1060795Y22392D01*
X1060590Y21365D01*
X1060319Y20353D01*
X1059983Y19361D01*
X1059582Y18393D01*
X1059118Y17454D01*
X1058595Y16546D01*
X1058013Y15675D01*
X1057375Y14844D01*
X1056684Y14057D01*
X1055943Y13316D01*
X1055156Y12625D01*
X1054325Y11988D01*
X1053454Y11406D01*
X1052546Y10882D01*
X1051607Y10418D01*
X1050639Y10017D01*
X1049647Y9681D01*
X1048635Y9410D01*
X1047608Y9205D01*
X1046569Y9069D01*
X1045524Y9000D01*
X1044476Y9000D01*
X1043431Y9069D01*
X1042392Y9205D01*
X1041365Y9410D01*
X1040353Y9681D01*
X1039361Y10017D01*
X1038393Y10418D01*
X1037454Y10882D01*
X1036546Y11406D01*
X1035675Y11988D01*
X1034844Y12625D01*
X1034057Y13316D01*
X1033316Y14057D01*
X1032625Y14844D01*
X1031988Y15675D01*
X1031406Y16546D01*
X1030882Y17454D01*
X1030418Y18393D01*
X1030017Y19361D01*
X1029681Y20353D01*
X1029410Y21365D01*
X1029205Y22392D01*
X1029069Y23431D01*
X1029000Y24476D01*
X1029000Y25524D01*
X1029069Y26569D01*
X1029205Y27608D01*
X1029410Y28635D01*
X1029681Y29647D01*
X1030017Y30639D01*
X1030418Y31607D01*
X1030882Y32546D01*
X1031406Y33454D01*
X1031988Y34325D01*
X1032625Y35156D01*
X1033316Y35943D01*
X1034057Y36684D01*
X1034844Y37375D01*
X1035675Y38013D01*
X1036546Y38595D01*
X1037454Y39118D01*
X1038393Y39582D01*
X1039361Y39983D01*
X1040353Y40319D01*
X1041365Y40590D01*
X1042392Y40795D01*
X1043431Y40932D01*
X1044476Y41000D01*
X1045524Y41000D01*
X1046569Y40932D01*
X1047608Y40795D01*
X1048635Y40590D01*
X1049647Y40319D01*
X1050639Y39983D01*
X1051607Y39582D01*
X1052546Y39118D01*
X1053454Y38595D01*
X1054325Y38013D01*
X1055156Y37375D01*
X1055943Y36684D01*
X1056684Y35943D01*
X1057375Y35156D01*
X1058013Y34325D01*
X1058595Y33454D01*
X1059118Y32546D01*
X1059582Y31607D01*
X1059983Y30639D01*
X1060319Y29647D01*
X1060590Y28635D01*
X1060795Y27608D01*
X1060932Y26569D01*
X1061000Y25524D01*
X1061000Y24476D01*
X67310Y267199D02*
X67388Y268194D01*
X67544Y269180D01*
X67777Y270150D01*
X68086Y271099D01*
X68468Y272021D01*
X68921Y272910D01*
X69442Y273761D01*
X70029Y274569D01*
X70677Y275327D01*
X71383Y276033D01*
X72141Y276681D01*
X72949Y277268D01*
X73800Y277789D01*
X74689Y278242D01*
X75611Y278624D01*
X76560Y278933D01*
X77530Y279166D01*
X78516Y279322D01*
X79511Y279400D01*
X80509Y279400D01*
X81504Y279322D01*
X82490Y279166D01*
X83460Y278933D01*
X84409Y278624D01*
X85331Y278242D01*
X86220Y277789D01*
X87071Y277268D01*
X87879Y276681D01*
X88637Y276033D01*
X89343Y275327D01*
X89991Y274569D01*
X90578Y273761D01*
X91099Y272910D01*
X91552Y272021D01*
X91934Y271099D01*
X92243Y270150D01*
X92476Y269180D01*
X92632Y268194D01*
X92710Y267199D01*
X92710Y266201D01*
X92632Y265206D01*
X92476Y264220D01*
X92243Y263250D01*
X91934Y262301D01*
X91552Y261379D01*
X91099Y260490D01*
X90578Y259639D01*
X89991Y258831D01*
X89343Y258073D01*
X88637Y257367D01*
X87879Y256719D01*
X87071Y256132D01*
X86220Y255611D01*
X85331Y255158D01*
X84409Y254776D01*
X83460Y254467D01*
X82490Y254234D01*
X81504Y254078D01*
X80509Y254000D01*
X79511Y254000D01*
X78516Y254078D01*
X77530Y254234D01*
X76560Y254467D01*
X75611Y254776D01*
X74689Y255158D01*
X73800Y255611D01*
X72949Y256132D01*
X72141Y256719D01*
X71383Y257367D01*
X70677Y258073D01*
X70029Y258831D01*
X69442Y259639D01*
X68921Y260490D01*
X68468Y261379D01*
X68086Y262301D01*
X67777Y263250D01*
X67544Y264220D01*
X67388Y265206D01*
X67310Y266201D01*
X67310Y267199D01*
X67310Y444999D02*
X67388Y445994D01*
X67544Y446980D01*
X67777Y447950D01*
X68086Y448899D01*
X68468Y449821D01*
X68921Y450710D01*
X69442Y451561D01*
X70029Y452369D01*
X70677Y453127D01*
X71383Y453833D01*
X72141Y454481D01*
X72949Y455068D01*
X73800Y455589D01*
X74689Y456042D01*
X75611Y456424D01*
X76560Y456733D01*
X77530Y456966D01*
X78516Y457122D01*
X79511Y457200D01*
X80509Y457200D01*
X81504Y457122D01*
X82490Y456966D01*
X83460Y456733D01*
X84409Y456424D01*
X85331Y456042D01*
X86220Y455589D01*
X87071Y455068D01*
X87879Y454481D01*
X88637Y453833D01*
X89343Y453127D01*
X89991Y452369D01*
X90578Y451561D01*
X91099Y450710D01*
X91552Y449821D01*
X91934Y448899D01*
X92243Y447950D01*
X92476Y446980D01*
X92632Y445994D01*
X92710Y444999D01*
X92710Y444001D01*
X92632Y443006D01*
X92476Y442020D01*
X92243Y441050D01*
X91934Y440101D01*
X91552Y439179D01*
X91099Y438290D01*
X90578Y437439D01*
X89991Y436631D01*
X89343Y435873D01*
X88637Y435167D01*
X87879Y434519D01*
X87071Y433932D01*
X86220Y433411D01*
X85331Y432958D01*
X84409Y432576D01*
X83460Y432267D01*
X82490Y432034D01*
X81504Y431878D01*
X80509Y431800D01*
X79511Y431800D01*
X78516Y431878D01*
X77530Y432034D01*
X76560Y432267D01*
X75611Y432576D01*
X74689Y432958D01*
X73800Y433411D01*
X72949Y433932D01*
X72141Y434519D01*
X71383Y435167D01*
X70677Y435873D01*
X70029Y436631D01*
X69442Y437439D01*
X68921Y438290D01*
X68468Y439179D01*
X68086Y440101D01*
X67777Y441050D01*
X67544Y442020D01*
X67388Y443006D01*
X67310Y444001D01*
X67310Y444999D01*
X251067Y639700D02*
X250285Y639777D01*
X249514Y639930D01*
X248762Y640159D01*
X248035Y640459D01*
X247342Y640830D01*
X246689Y641267D01*
X246081Y641765D01*
X245525Y642321D01*
X245027Y642929D01*
X244590Y643582D01*
X244219Y644275D01*
X243919Y645002D01*
X243690Y645754D01*
X243537Y646525D01*
X243460Y647307D01*
X243460Y648093D01*
X243537Y648875D01*
X243690Y649646D01*
X243919Y650398D01*
X244219Y651125D01*
X244590Y651818D01*
X245027Y652471D01*
X245525Y653079D01*
X246081Y653635D01*
X246689Y654133D01*
X247342Y654570D01*
X248035Y654941D01*
X248762Y655241D01*
X249514Y655470D01*
X250285Y655623D01*
X251067Y655700D01*
X251853Y655700D01*
X252635Y655623D01*
X253406Y655470D01*
X254158Y655241D01*
X254885Y654941D01*
X255578Y654570D01*
X256231Y654133D01*
X256839Y653635D01*
X257395Y653079D01*
X257893Y652471D01*
X258330Y651818D01*
X258701Y651125D01*
X259001Y650398D01*
X259230Y649646D01*
X259383Y648875D01*
X259460Y648093D01*
X259460Y647307D01*
X259383Y646525D01*
X259230Y645754D01*
X259001Y645002D01*
X258701Y644275D01*
X258330Y643582D01*
X257893Y642929D01*
X257395Y642321D01*
X256839Y641765D01*
X256231Y641267D01*
X255578Y640830D01*
X254885Y640459D01*
X254158Y640159D01*
X253406Y639930D01*
X252635Y639777D01*
X251853Y639700D01*
X251067Y639700D01*
X251067Y593700D02*
X250284Y593769D01*
X249510Y593905D01*
X248751Y594108D01*
X248013Y594377D01*
X247300Y594709D01*
X246620Y595102D01*
X245976Y595553D01*
X245374Y596058D01*
X244818Y596614D01*
X244313Y597216D01*
X243862Y597860D01*
X243469Y598540D01*
X243137Y599253D01*
X242868Y599991D01*
X242665Y600750D01*
X242529Y601524D01*
X242460Y602307D01*
X242460Y603093D01*
X242529Y603876D01*
X242665Y604650D01*
X242868Y605409D01*
X243137Y606147D01*
X243469Y606860D01*
X243862Y607540D01*
X244313Y608184D01*
X244818Y608786D01*
X245374Y609342D01*
X245976Y609847D01*
X246620Y610298D01*
X247300Y610691D01*
X248013Y611023D01*
X248751Y611292D01*
X249510Y611495D01*
X250284Y611632D01*
X251067Y611700D01*
X251853Y611700D01*
X252636Y611632D01*
X253410Y611495D01*
X254169Y611292D01*
X254907Y611023D01*
X255620Y610691D01*
X256300Y610298D01*
X256944Y609847D01*
X257546Y609342D01*
X258102Y608786D01*
X258607Y608184D01*
X259058Y607540D01*
X259451Y606860D01*
X259783Y606147D01*
X260052Y605409D01*
X260255Y604650D01*
X260392Y603876D01*
X260460Y603093D01*
X260460Y602307D01*
X260392Y601524D01*
X260255Y600750D01*
X260052Y599991D01*
X259783Y599253D01*
X259451Y598540D01*
X259058Y597860D01*
X258607Y597216D01*
X258102Y596614D01*
X257546Y596058D01*
X256944Y595553D01*
X256300Y595102D01*
X255620Y594709D01*
X254907Y594377D01*
X254169Y594108D01*
X253410Y593905D01*
X252636Y593769D01*
X251853Y593700D01*
X251067Y593700D01*
X82918Y157490D02*
X83652Y157418D01*
X84375Y157274D01*
X85080Y157060D01*
X85761Y156778D01*
X86410Y156431D01*
X87023Y156021D01*
X87593Y155554D01*
X88114Y155033D01*
X88581Y154463D01*
X88991Y153850D01*
X89338Y153201D01*
X89620Y152520D01*
X89834Y151815D01*
X89978Y151092D01*
X90050Y150358D01*
X90050Y149622D01*
X89978Y148888D01*
X89834Y148165D01*
X89620Y147460D01*
X89338Y146779D01*
X88991Y146130D01*
X88581Y145517D01*
X88114Y144947D01*
X87593Y144426D01*
X87023Y143959D01*
X86410Y143549D01*
X85761Y143202D01*
X85080Y142920D01*
X84375Y142706D01*
X83652Y142562D01*
X82918Y142490D01*
X82182Y142490D01*
X81448Y142562D01*
X80725Y142706D01*
X80020Y142920D01*
X79339Y143202D01*
X78690Y143549D01*
X78077Y143959D01*
X77507Y144426D01*
X76986Y144947D01*
X76519Y145517D01*
X76109Y146130D01*
X75762Y146779D01*
X75480Y147460D01*
X75266Y148165D01*
X75122Y148888D01*
X75050Y149622D01*
X75050Y150358D01*
X75122Y151092D01*
X75266Y151815D01*
X75480Y152520D01*
X75762Y153201D01*
X76109Y153850D01*
X76519Y154463D01*
X76986Y155033D01*
X77507Y155554D01*
X78077Y156021D01*
X78690Y156431D01*
X79339Y156778D01*
X80020Y157060D01*
X80725Y157274D01*
X81448Y157418D01*
X82182Y157490D01*
X82918Y157490D01*
X82918Y82990D02*
X83652Y82918D01*
X84375Y82774D01*
X85080Y82560D01*
X85761Y82278D01*
X86410Y81931D01*
X87023Y81521D01*
X87593Y81054D01*
X88114Y80533D01*
X88581Y79963D01*
X88991Y79350D01*
X89338Y78701D01*
X89620Y78020D01*
X89834Y77315D01*
X89978Y76592D01*
X90050Y75858D01*
X90050Y75122D01*
X89978Y74388D01*
X89834Y73665D01*
X89620Y72960D01*
X89338Y72279D01*
X88991Y71630D01*
X88581Y71017D01*
X88114Y70447D01*
X87593Y69926D01*
X87023Y69459D01*
X86410Y69049D01*
X85761Y68702D01*
X85080Y68420D01*
X84375Y68206D01*
X83652Y68062D01*
X82918Y67990D01*
X82182Y67990D01*
X81448Y68062D01*
X80725Y68206D01*
X80020Y68420D01*
X79339Y68702D01*
X78690Y69049D01*
X78077Y69459D01*
X77507Y69926D01*
X76986Y70447D01*
X76519Y71017D01*
X76109Y71630D01*
X75762Y72279D01*
X75480Y72960D01*
X75266Y73665D01*
X75122Y74388D01*
X75050Y75122D01*
X75050Y75858D01*
X75122Y76592D01*
X75266Y77315D01*
X75480Y78020D01*
X75762Y78701D01*
X76109Y79350D01*
X76519Y79963D01*
X76986Y80533D01*
X77507Y81054D01*
X78077Y81521D01*
X78690Y81931D01*
X79339Y82278D01*
X80020Y82560D01*
X80725Y82774D01*
X81448Y82918D01*
X82182Y82990D01*
X82918Y82990D01*
M02*
