G04 EAGLE Gerber RS-274X export*
G75*
%MOMM*%
%FSLAX34Y34*%
%LPD*%
%INSolderpaste Top*%
%IPPOS*%
%AMOC8*
5,1,8,0,0,1.08239X$1,22.5*%
G01*
%ADD10R,1.500000X1.300000*%
%ADD11R,0.800000X0.900000*%
%ADD12R,1.400000X1.100000*%
%ADD13R,1.100000X1.400000*%
%ADD14R,2.000000X2.400000*%
%ADD15R,0.533400X1.981200*%
%ADD16R,1.300000X1.500000*%
%ADD17R,2.000000X4.000000*%
%ADD18R,1.200000X1.200000*%
%ADD19R,1.145600X0.597100*%
%ADD20R,3.700000X0.980000*%
%ADD21R,0.800000X0.600000*%
%ADD22R,1.240000X2.020000*%
%ADD23R,0.600000X2.000000*%
%ADD24R,0.450000X2.150000*%
%ADD25R,2.541200X1.790400*%
%ADD26R,3.500000X2.500000*%
%ADD27R,2.150000X0.450000*%
%ADD28R,1.790400X2.541200*%
%ADD29R,0.400000X0.800000*%
%ADD30R,0.800000X0.400000*%
%ADD31C,0.102500*%
%ADD32R,0.750000X0.500000*%
%ADD33R,0.750000X0.400000*%
%ADD34R,1.500000X1.500000*%
%ADD35R,2.150000X2.200000*%
%ADD36R,2.200000X2.150000*%
%ADD37R,1.500000X2.100000*%
%ADD38R,0.889000X3.000000*%
%ADD39R,0.889000X3.200000*%
%ADD40R,1.600200X1.168400*%
%ADD41R,0.597100X1.145600*%
%ADD42R,0.880100X0.569200*%
%ADD43R,0.569200X0.880100*%
%ADD44R,0.600000X0.800000*%
%ADD45R,1.400000X1.300000*%
%ADD46R,0.950000X1.000000*%
%ADD47R,1.500000X0.800000*%
%ADD48R,1.900000X1.400000*%

G36*
X347647Y348062D02*
X347647Y348062D01*
X347649Y348061D01*
X347692Y348081D01*
X347736Y348099D01*
X347736Y348101D01*
X347738Y348102D01*
X347771Y348187D01*
X347771Y370793D01*
X347770Y370795D01*
X347771Y370797D01*
X347751Y370840D01*
X347733Y370884D01*
X347731Y370884D01*
X347730Y370886D01*
X347645Y370919D01*
X338755Y370919D01*
X338753Y370918D01*
X338751Y370919D01*
X338708Y370899D01*
X338664Y370881D01*
X338664Y370879D01*
X338662Y370878D01*
X338629Y370793D01*
X338629Y348187D01*
X338630Y348185D01*
X338629Y348183D01*
X338649Y348140D01*
X338667Y348096D01*
X338669Y348096D01*
X338670Y348094D01*
X338755Y348061D01*
X347645Y348061D01*
X347647Y348062D01*
G37*
G36*
X360147Y348062D02*
X360147Y348062D01*
X360149Y348061D01*
X360192Y348081D01*
X360236Y348099D01*
X360236Y348101D01*
X360238Y348102D01*
X360271Y348187D01*
X360271Y370793D01*
X360270Y370795D01*
X360271Y370797D01*
X360251Y370840D01*
X360233Y370884D01*
X360231Y370884D01*
X360230Y370886D01*
X360145Y370919D01*
X351255Y370919D01*
X351253Y370918D01*
X351251Y370919D01*
X351208Y370899D01*
X351164Y370881D01*
X351164Y370879D01*
X351162Y370878D01*
X351129Y370793D01*
X351129Y348187D01*
X351130Y348185D01*
X351129Y348183D01*
X351149Y348140D01*
X351167Y348096D01*
X351169Y348096D01*
X351170Y348094D01*
X351255Y348061D01*
X360145Y348061D01*
X360147Y348062D01*
G37*
G36*
X385147Y348062D02*
X385147Y348062D01*
X385149Y348061D01*
X385192Y348081D01*
X385236Y348099D01*
X385236Y348101D01*
X385238Y348102D01*
X385271Y348187D01*
X385271Y370793D01*
X385270Y370795D01*
X385271Y370797D01*
X385251Y370840D01*
X385233Y370884D01*
X385231Y370884D01*
X385230Y370886D01*
X385145Y370919D01*
X376255Y370919D01*
X376253Y370918D01*
X376251Y370919D01*
X376208Y370899D01*
X376164Y370881D01*
X376164Y370879D01*
X376162Y370878D01*
X376129Y370793D01*
X376129Y348187D01*
X376130Y348185D01*
X376129Y348183D01*
X376149Y348140D01*
X376167Y348096D01*
X376169Y348096D01*
X376170Y348094D01*
X376255Y348061D01*
X385145Y348061D01*
X385147Y348062D01*
G37*
G36*
X372647Y348062D02*
X372647Y348062D01*
X372649Y348061D01*
X372692Y348081D01*
X372736Y348099D01*
X372736Y348101D01*
X372738Y348102D01*
X372771Y348187D01*
X372771Y370793D01*
X372770Y370795D01*
X372771Y370797D01*
X372751Y370840D01*
X372733Y370884D01*
X372731Y370884D01*
X372730Y370886D01*
X372645Y370919D01*
X363755Y370919D01*
X363753Y370918D01*
X363751Y370919D01*
X363708Y370899D01*
X363664Y370881D01*
X363664Y370879D01*
X363662Y370878D01*
X363629Y370793D01*
X363629Y348187D01*
X363630Y348185D01*
X363629Y348183D01*
X363649Y348140D01*
X363667Y348096D01*
X363669Y348096D01*
X363670Y348094D01*
X363755Y348061D01*
X372645Y348061D01*
X372647Y348062D01*
G37*
G36*
X385147Y294562D02*
X385147Y294562D01*
X385149Y294561D01*
X385192Y294581D01*
X385236Y294599D01*
X385236Y294601D01*
X385238Y294602D01*
X385271Y294687D01*
X385271Y317293D01*
X385270Y317295D01*
X385271Y317297D01*
X385251Y317340D01*
X385233Y317384D01*
X385231Y317384D01*
X385230Y317386D01*
X385145Y317419D01*
X376255Y317419D01*
X376253Y317418D01*
X376251Y317419D01*
X376208Y317399D01*
X376164Y317381D01*
X376164Y317379D01*
X376162Y317378D01*
X376129Y317293D01*
X376129Y294687D01*
X376130Y294685D01*
X376129Y294683D01*
X376149Y294640D01*
X376167Y294596D01*
X376169Y294596D01*
X376170Y294594D01*
X376255Y294561D01*
X385145Y294561D01*
X385147Y294562D01*
G37*
G36*
X372647Y294562D02*
X372647Y294562D01*
X372649Y294561D01*
X372692Y294581D01*
X372736Y294599D01*
X372736Y294601D01*
X372738Y294602D01*
X372771Y294687D01*
X372771Y317293D01*
X372770Y317295D01*
X372771Y317297D01*
X372751Y317340D01*
X372733Y317384D01*
X372731Y317384D01*
X372730Y317386D01*
X372645Y317419D01*
X363755Y317419D01*
X363753Y317418D01*
X363751Y317419D01*
X363708Y317399D01*
X363664Y317381D01*
X363664Y317379D01*
X363662Y317378D01*
X363629Y317293D01*
X363629Y294687D01*
X363630Y294685D01*
X363629Y294683D01*
X363649Y294640D01*
X363667Y294596D01*
X363669Y294596D01*
X363670Y294594D01*
X363755Y294561D01*
X372645Y294561D01*
X372647Y294562D01*
G37*
G36*
X360147Y294562D02*
X360147Y294562D01*
X360149Y294561D01*
X360192Y294581D01*
X360236Y294599D01*
X360236Y294601D01*
X360238Y294602D01*
X360271Y294687D01*
X360271Y317293D01*
X360270Y317295D01*
X360271Y317297D01*
X360251Y317340D01*
X360233Y317384D01*
X360231Y317384D01*
X360230Y317386D01*
X360145Y317419D01*
X351255Y317419D01*
X351253Y317418D01*
X351251Y317419D01*
X351208Y317399D01*
X351164Y317381D01*
X351164Y317379D01*
X351162Y317378D01*
X351129Y317293D01*
X351129Y294687D01*
X351130Y294685D01*
X351129Y294683D01*
X351149Y294640D01*
X351167Y294596D01*
X351169Y294596D01*
X351170Y294594D01*
X351255Y294561D01*
X360145Y294561D01*
X360147Y294562D01*
G37*
G36*
X347647Y294562D02*
X347647Y294562D01*
X347649Y294561D01*
X347692Y294581D01*
X347736Y294599D01*
X347736Y294601D01*
X347738Y294602D01*
X347771Y294687D01*
X347771Y317293D01*
X347770Y317295D01*
X347771Y317297D01*
X347751Y317340D01*
X347733Y317384D01*
X347731Y317384D01*
X347730Y317386D01*
X347645Y317419D01*
X338755Y317419D01*
X338753Y317418D01*
X338751Y317419D01*
X338708Y317399D01*
X338664Y317381D01*
X338664Y317379D01*
X338662Y317378D01*
X338629Y317293D01*
X338629Y294687D01*
X338630Y294685D01*
X338629Y294683D01*
X338649Y294640D01*
X338667Y294596D01*
X338669Y294596D01*
X338670Y294594D01*
X338755Y294561D01*
X347645Y294561D01*
X347647Y294562D01*
G37*
G36*
X476132Y417003D02*
X476132Y417003D01*
X476134Y417001D01*
X476525Y417032D01*
X476529Y417036D01*
X476532Y417033D01*
X476914Y417124D01*
X476918Y417129D01*
X476922Y417127D01*
X477284Y417277D01*
X477287Y417282D01*
X477291Y417280D01*
X477625Y417485D01*
X477627Y417490D01*
X477631Y417490D01*
X477930Y417745D01*
X477931Y417750D01*
X477935Y417750D01*
X478190Y418049D01*
X478191Y418055D01*
X478195Y418055D01*
X478400Y418389D01*
X478399Y418395D01*
X478404Y418396D01*
X478554Y418758D01*
X478553Y418760D01*
X478554Y418760D01*
X478552Y418763D01*
X478552Y418764D01*
X478556Y418766D01*
X478647Y419148D01*
X478645Y419153D01*
X478647Y419154D01*
X478648Y419155D01*
X478679Y419546D01*
X478677Y419549D01*
X478679Y419550D01*
X478648Y431741D01*
X478643Y431748D01*
X478647Y431752D01*
X478556Y432134D01*
X478551Y432138D01*
X478554Y432142D01*
X478404Y432504D01*
X478398Y432507D01*
X478400Y432511D01*
X478195Y432845D01*
X478190Y432847D01*
X478190Y432851D01*
X477935Y433150D01*
X477930Y433151D01*
X477930Y433155D01*
X477631Y433410D01*
X477625Y433411D01*
X477625Y433415D01*
X477291Y433620D01*
X477285Y433619D01*
X477284Y433624D01*
X476922Y433774D01*
X476916Y433772D01*
X476914Y433776D01*
X476532Y433867D01*
X476527Y433865D01*
X476525Y433868D01*
X476134Y433899D01*
X476131Y433897D01*
X476130Y433899D01*
X470330Y433899D01*
X470328Y433897D01*
X470326Y433899D01*
X469935Y433868D01*
X469931Y433864D01*
X469928Y433867D01*
X469546Y433776D01*
X469542Y433771D01*
X469538Y433774D01*
X469176Y433624D01*
X469173Y433618D01*
X469169Y433620D01*
X468835Y433415D01*
X468833Y433410D01*
X468829Y433410D01*
X468530Y433155D01*
X468529Y433150D01*
X468525Y433150D01*
X468270Y432851D01*
X468269Y432845D01*
X468265Y432845D01*
X468060Y432511D01*
X468061Y432505D01*
X468057Y432504D01*
X467907Y432142D01*
X467908Y432137D01*
X467906Y432135D01*
X467904Y432134D01*
X467813Y431752D01*
X467815Y431747D01*
X467812Y431745D01*
X467781Y431354D01*
X467783Y431351D01*
X467781Y431350D01*
X467812Y419159D01*
X467817Y419152D01*
X467813Y419148D01*
X467904Y418766D01*
X467909Y418762D01*
X467907Y418758D01*
X468057Y418396D01*
X468062Y418393D01*
X468060Y418389D01*
X468265Y418055D01*
X468270Y418053D01*
X468270Y418049D01*
X468525Y417750D01*
X468530Y417749D01*
X468530Y417745D01*
X468829Y417490D01*
X468835Y417489D01*
X468835Y417485D01*
X469169Y417280D01*
X469175Y417281D01*
X469176Y417277D01*
X469538Y417127D01*
X469544Y417128D01*
X469546Y417124D01*
X469928Y417033D01*
X469933Y417035D01*
X469935Y417032D01*
X470326Y417001D01*
X470329Y417003D01*
X470330Y417001D01*
X476130Y417001D01*
X476132Y417003D01*
G37*
G36*
X401202Y417003D02*
X401202Y417003D01*
X401204Y417001D01*
X401595Y417032D01*
X401599Y417036D01*
X401602Y417033D01*
X401984Y417124D01*
X401988Y417129D01*
X401992Y417127D01*
X402354Y417277D01*
X402357Y417282D01*
X402361Y417280D01*
X402695Y417485D01*
X402697Y417490D01*
X402701Y417490D01*
X403000Y417745D01*
X403001Y417750D01*
X403005Y417750D01*
X403260Y418049D01*
X403261Y418055D01*
X403265Y418055D01*
X403470Y418389D01*
X403469Y418395D01*
X403474Y418396D01*
X403624Y418758D01*
X403623Y418760D01*
X403624Y418760D01*
X403622Y418763D01*
X403622Y418764D01*
X403626Y418766D01*
X403717Y419148D01*
X403715Y419153D01*
X403717Y419154D01*
X403718Y419155D01*
X403749Y419546D01*
X403747Y419549D01*
X403749Y419550D01*
X403718Y431741D01*
X403713Y431748D01*
X403717Y431752D01*
X403626Y432134D01*
X403621Y432138D01*
X403624Y432142D01*
X403474Y432504D01*
X403468Y432507D01*
X403470Y432511D01*
X403265Y432845D01*
X403260Y432847D01*
X403260Y432851D01*
X403005Y433150D01*
X403000Y433151D01*
X403000Y433155D01*
X402701Y433410D01*
X402695Y433411D01*
X402695Y433415D01*
X402361Y433620D01*
X402355Y433619D01*
X402354Y433624D01*
X401992Y433774D01*
X401986Y433772D01*
X401984Y433776D01*
X401602Y433867D01*
X401597Y433865D01*
X401595Y433868D01*
X401204Y433899D01*
X401201Y433897D01*
X401200Y433899D01*
X395400Y433899D01*
X395398Y433897D01*
X395396Y433899D01*
X395005Y433868D01*
X395001Y433864D01*
X394998Y433867D01*
X394616Y433776D01*
X394612Y433771D01*
X394608Y433774D01*
X394246Y433624D01*
X394243Y433618D01*
X394239Y433620D01*
X393905Y433415D01*
X393903Y433410D01*
X393899Y433410D01*
X393600Y433155D01*
X393599Y433150D01*
X393595Y433150D01*
X393340Y432851D01*
X393339Y432845D01*
X393335Y432845D01*
X393130Y432511D01*
X393131Y432505D01*
X393127Y432504D01*
X392977Y432142D01*
X392978Y432137D01*
X392976Y432135D01*
X392974Y432134D01*
X392883Y431752D01*
X392885Y431747D01*
X392882Y431745D01*
X392851Y431354D01*
X392853Y431351D01*
X392851Y431350D01*
X392882Y419159D01*
X392887Y419152D01*
X392883Y419148D01*
X392974Y418766D01*
X392979Y418762D01*
X392977Y418758D01*
X393127Y418396D01*
X393132Y418393D01*
X393130Y418389D01*
X393335Y418055D01*
X393340Y418053D01*
X393340Y418049D01*
X393595Y417750D01*
X393600Y417749D01*
X393600Y417745D01*
X393899Y417490D01*
X393905Y417489D01*
X393905Y417485D01*
X394239Y417280D01*
X394245Y417281D01*
X394246Y417277D01*
X394608Y417127D01*
X394614Y417128D01*
X394616Y417124D01*
X394998Y417033D01*
X395003Y417035D01*
X395005Y417032D01*
X395396Y417001D01*
X395399Y417003D01*
X395400Y417001D01*
X401200Y417001D01*
X401202Y417003D01*
G37*
G36*
X430102Y417003D02*
X430102Y417003D01*
X430104Y417001D01*
X430495Y417032D01*
X430499Y417036D01*
X430502Y417033D01*
X430884Y417124D01*
X430888Y417129D01*
X430892Y417127D01*
X431254Y417277D01*
X431257Y417282D01*
X431261Y417280D01*
X431595Y417485D01*
X431597Y417490D01*
X431601Y417490D01*
X431900Y417745D01*
X431901Y417750D01*
X431905Y417750D01*
X432160Y418049D01*
X432161Y418055D01*
X432165Y418055D01*
X432370Y418389D01*
X432369Y418395D01*
X432374Y418396D01*
X432524Y418758D01*
X432523Y418760D01*
X432524Y418760D01*
X432522Y418763D01*
X432522Y418764D01*
X432526Y418766D01*
X432617Y419148D01*
X432615Y419153D01*
X432617Y419154D01*
X432618Y419155D01*
X432649Y419546D01*
X432647Y419549D01*
X432649Y419550D01*
X432618Y431741D01*
X432613Y431748D01*
X432617Y431752D01*
X432526Y432134D01*
X432521Y432138D01*
X432524Y432142D01*
X432374Y432504D01*
X432368Y432507D01*
X432370Y432511D01*
X432165Y432845D01*
X432160Y432847D01*
X432160Y432851D01*
X431905Y433150D01*
X431900Y433151D01*
X431900Y433155D01*
X431601Y433410D01*
X431595Y433411D01*
X431595Y433415D01*
X431261Y433620D01*
X431255Y433619D01*
X431254Y433624D01*
X430892Y433774D01*
X430886Y433772D01*
X430884Y433776D01*
X430502Y433867D01*
X430497Y433865D01*
X430495Y433868D01*
X430104Y433899D01*
X430101Y433897D01*
X430100Y433899D01*
X424300Y433899D01*
X424298Y433897D01*
X424296Y433899D01*
X423905Y433868D01*
X423901Y433864D01*
X423898Y433867D01*
X423516Y433776D01*
X423512Y433771D01*
X423508Y433774D01*
X423146Y433624D01*
X423143Y433618D01*
X423139Y433620D01*
X422805Y433415D01*
X422803Y433410D01*
X422799Y433410D01*
X422500Y433155D01*
X422499Y433150D01*
X422495Y433150D01*
X422240Y432851D01*
X422239Y432845D01*
X422235Y432845D01*
X422030Y432511D01*
X422031Y432505D01*
X422027Y432504D01*
X421877Y432142D01*
X421878Y432137D01*
X421876Y432135D01*
X421874Y432134D01*
X421783Y431752D01*
X421785Y431747D01*
X421782Y431745D01*
X421751Y431354D01*
X421753Y431351D01*
X421751Y431350D01*
X421782Y419159D01*
X421787Y419152D01*
X421783Y419148D01*
X421874Y418766D01*
X421879Y418762D01*
X421877Y418758D01*
X422027Y418396D01*
X422032Y418393D01*
X422030Y418389D01*
X422235Y418055D01*
X422240Y418053D01*
X422240Y418049D01*
X422495Y417750D01*
X422500Y417749D01*
X422500Y417745D01*
X422799Y417490D01*
X422805Y417489D01*
X422805Y417485D01*
X423139Y417280D01*
X423145Y417281D01*
X423146Y417277D01*
X423508Y417127D01*
X423514Y417128D01*
X423516Y417124D01*
X423898Y417033D01*
X423903Y417035D01*
X423905Y417032D01*
X424296Y417001D01*
X424299Y417003D01*
X424300Y417001D01*
X430100Y417001D01*
X430102Y417003D01*
G37*
G36*
X505032Y417003D02*
X505032Y417003D01*
X505034Y417001D01*
X505425Y417032D01*
X505429Y417036D01*
X505432Y417033D01*
X505814Y417124D01*
X505818Y417129D01*
X505822Y417127D01*
X506184Y417277D01*
X506187Y417282D01*
X506191Y417280D01*
X506525Y417485D01*
X506527Y417490D01*
X506531Y417490D01*
X506830Y417745D01*
X506831Y417750D01*
X506835Y417750D01*
X507090Y418049D01*
X507091Y418055D01*
X507095Y418055D01*
X507300Y418389D01*
X507299Y418395D01*
X507304Y418396D01*
X507454Y418758D01*
X507453Y418760D01*
X507454Y418760D01*
X507452Y418763D01*
X507452Y418764D01*
X507456Y418766D01*
X507547Y419148D01*
X507545Y419153D01*
X507547Y419154D01*
X507548Y419155D01*
X507579Y419546D01*
X507577Y419549D01*
X507579Y419550D01*
X507548Y431741D01*
X507543Y431748D01*
X507547Y431752D01*
X507456Y432134D01*
X507451Y432138D01*
X507454Y432142D01*
X507304Y432504D01*
X507298Y432507D01*
X507300Y432511D01*
X507095Y432845D01*
X507090Y432847D01*
X507090Y432851D01*
X506835Y433150D01*
X506830Y433151D01*
X506830Y433155D01*
X506531Y433410D01*
X506525Y433411D01*
X506525Y433415D01*
X506191Y433620D01*
X506185Y433619D01*
X506184Y433624D01*
X505822Y433774D01*
X505816Y433772D01*
X505814Y433776D01*
X505432Y433867D01*
X505427Y433865D01*
X505425Y433868D01*
X505034Y433899D01*
X505031Y433897D01*
X505030Y433899D01*
X499230Y433899D01*
X499228Y433897D01*
X499226Y433899D01*
X498835Y433868D01*
X498831Y433864D01*
X498828Y433867D01*
X498446Y433776D01*
X498442Y433771D01*
X498438Y433774D01*
X498076Y433624D01*
X498073Y433618D01*
X498069Y433620D01*
X497735Y433415D01*
X497733Y433410D01*
X497729Y433410D01*
X497430Y433155D01*
X497429Y433150D01*
X497425Y433150D01*
X497170Y432851D01*
X497169Y432845D01*
X497165Y432845D01*
X496960Y432511D01*
X496961Y432505D01*
X496957Y432504D01*
X496807Y432142D01*
X496808Y432137D01*
X496806Y432135D01*
X496804Y432134D01*
X496713Y431752D01*
X496715Y431747D01*
X496712Y431745D01*
X496681Y431354D01*
X496683Y431351D01*
X496681Y431350D01*
X496712Y419159D01*
X496717Y419152D01*
X496713Y419148D01*
X496804Y418766D01*
X496809Y418762D01*
X496807Y418758D01*
X496957Y418396D01*
X496962Y418393D01*
X496960Y418389D01*
X497165Y418055D01*
X497170Y418053D01*
X497170Y418049D01*
X497425Y417750D01*
X497430Y417749D01*
X497430Y417745D01*
X497729Y417490D01*
X497735Y417489D01*
X497735Y417485D01*
X498069Y417280D01*
X498075Y417281D01*
X498076Y417277D01*
X498438Y417127D01*
X498444Y417128D01*
X498446Y417124D01*
X498828Y417033D01*
X498833Y417035D01*
X498835Y417032D01*
X499226Y417001D01*
X499229Y417003D01*
X499230Y417001D01*
X505030Y417001D01*
X505032Y417003D01*
G37*
G36*
X457141Y631332D02*
X457141Y631332D01*
X457148Y631337D01*
X457152Y631333D01*
X457534Y631424D01*
X457538Y631429D01*
X457542Y631427D01*
X457904Y631577D01*
X457907Y631582D01*
X457911Y631580D01*
X458245Y631785D01*
X458247Y631790D01*
X458251Y631790D01*
X458550Y632045D01*
X458551Y632050D01*
X458555Y632050D01*
X458810Y632349D01*
X458811Y632355D01*
X458815Y632355D01*
X459020Y632689D01*
X459019Y632695D01*
X459024Y632696D01*
X459174Y633058D01*
X459173Y633060D01*
X459174Y633060D01*
X459172Y633063D01*
X459172Y633064D01*
X459176Y633066D01*
X459267Y633448D01*
X459265Y633453D01*
X459267Y633454D01*
X459268Y633455D01*
X459299Y633846D01*
X459297Y633849D01*
X459299Y633850D01*
X459299Y639650D01*
X459297Y639652D01*
X459299Y639654D01*
X459268Y640045D01*
X459264Y640049D01*
X459267Y640052D01*
X459176Y640434D01*
X459171Y640438D01*
X459174Y640442D01*
X459024Y640804D01*
X459018Y640807D01*
X459020Y640811D01*
X458815Y641145D01*
X458810Y641147D01*
X458810Y641151D01*
X458555Y641450D01*
X458550Y641451D01*
X458550Y641455D01*
X458251Y641710D01*
X458245Y641711D01*
X458245Y641715D01*
X457911Y641920D01*
X457905Y641919D01*
X457904Y641924D01*
X457542Y642074D01*
X457536Y642072D01*
X457534Y642076D01*
X457152Y642167D01*
X457147Y642165D01*
X457145Y642168D01*
X456754Y642199D01*
X456751Y642197D01*
X456750Y642199D01*
X444559Y642168D01*
X444552Y642163D01*
X444548Y642167D01*
X444166Y642076D01*
X444162Y642071D01*
X444158Y642074D01*
X443796Y641924D01*
X443793Y641918D01*
X443789Y641920D01*
X443455Y641715D01*
X443453Y641710D01*
X443449Y641710D01*
X443150Y641455D01*
X443149Y641450D01*
X443145Y641450D01*
X442890Y641151D01*
X442889Y641145D01*
X442885Y641145D01*
X442680Y640811D01*
X442681Y640805D01*
X442677Y640804D01*
X442527Y640442D01*
X442528Y640436D01*
X442524Y640434D01*
X442433Y640052D01*
X442435Y640047D01*
X442432Y640045D01*
X442401Y639654D01*
X442403Y639651D01*
X442401Y639650D01*
X442401Y633850D01*
X442403Y633848D01*
X442401Y633846D01*
X442432Y633455D01*
X442436Y633451D01*
X442433Y633448D01*
X442524Y633066D01*
X442529Y633062D01*
X442527Y633058D01*
X442677Y632696D01*
X442682Y632693D01*
X442680Y632689D01*
X442885Y632355D01*
X442890Y632353D01*
X442890Y632349D01*
X443145Y632050D01*
X443150Y632049D01*
X443150Y632045D01*
X443449Y631790D01*
X443455Y631789D01*
X443455Y631785D01*
X443789Y631580D01*
X443795Y631581D01*
X443796Y631577D01*
X444158Y631427D01*
X444164Y631428D01*
X444166Y631424D01*
X444548Y631333D01*
X444553Y631335D01*
X444555Y631332D01*
X444946Y631301D01*
X444949Y631303D01*
X444950Y631301D01*
X457141Y631332D01*
G37*
G36*
X457141Y602432D02*
X457141Y602432D01*
X457148Y602437D01*
X457152Y602433D01*
X457534Y602524D01*
X457538Y602529D01*
X457542Y602527D01*
X457904Y602677D01*
X457907Y602682D01*
X457911Y602680D01*
X458245Y602885D01*
X458247Y602890D01*
X458251Y602890D01*
X458550Y603145D01*
X458551Y603150D01*
X458555Y603150D01*
X458810Y603449D01*
X458811Y603455D01*
X458815Y603455D01*
X459020Y603789D01*
X459019Y603795D01*
X459024Y603796D01*
X459174Y604158D01*
X459173Y604160D01*
X459174Y604160D01*
X459172Y604163D01*
X459172Y604164D01*
X459176Y604166D01*
X459267Y604548D01*
X459265Y604553D01*
X459267Y604554D01*
X459268Y604555D01*
X459299Y604946D01*
X459297Y604949D01*
X459299Y604950D01*
X459299Y610750D01*
X459297Y610752D01*
X459299Y610754D01*
X459268Y611145D01*
X459264Y611149D01*
X459267Y611152D01*
X459176Y611534D01*
X459171Y611538D01*
X459174Y611542D01*
X459024Y611904D01*
X459018Y611907D01*
X459020Y611911D01*
X458815Y612245D01*
X458810Y612247D01*
X458810Y612251D01*
X458555Y612550D01*
X458550Y612551D01*
X458550Y612555D01*
X458251Y612810D01*
X458245Y612811D01*
X458245Y612815D01*
X457911Y613020D01*
X457905Y613019D01*
X457904Y613024D01*
X457542Y613174D01*
X457536Y613172D01*
X457534Y613176D01*
X457152Y613267D01*
X457147Y613265D01*
X457145Y613268D01*
X456754Y613299D01*
X456751Y613297D01*
X456750Y613299D01*
X444559Y613268D01*
X444552Y613263D01*
X444548Y613267D01*
X444166Y613176D01*
X444162Y613171D01*
X444158Y613174D01*
X443796Y613024D01*
X443793Y613018D01*
X443789Y613020D01*
X443455Y612815D01*
X443453Y612810D01*
X443449Y612810D01*
X443150Y612555D01*
X443149Y612550D01*
X443145Y612550D01*
X442890Y612251D01*
X442889Y612245D01*
X442885Y612245D01*
X442680Y611911D01*
X442681Y611905D01*
X442677Y611904D01*
X442527Y611542D01*
X442528Y611536D01*
X442524Y611534D01*
X442433Y611152D01*
X442435Y611147D01*
X442432Y611145D01*
X442401Y610754D01*
X442403Y610751D01*
X442401Y610750D01*
X442401Y604950D01*
X442403Y604948D01*
X442401Y604946D01*
X442432Y604555D01*
X442436Y604551D01*
X442433Y604548D01*
X442524Y604166D01*
X442529Y604162D01*
X442527Y604158D01*
X442677Y603796D01*
X442682Y603793D01*
X442680Y603789D01*
X442885Y603455D01*
X442890Y603453D01*
X442890Y603449D01*
X443145Y603150D01*
X443150Y603149D01*
X443150Y603145D01*
X443449Y602890D01*
X443455Y602889D01*
X443455Y602885D01*
X443789Y602680D01*
X443795Y602681D01*
X443796Y602677D01*
X444158Y602527D01*
X444164Y602528D01*
X444166Y602524D01*
X444548Y602433D01*
X444553Y602435D01*
X444555Y602432D01*
X444946Y602401D01*
X444949Y602403D01*
X444950Y602401D01*
X457141Y602432D01*
G37*
G36*
X665421Y505602D02*
X665421Y505602D01*
X665428Y505607D01*
X665432Y505603D01*
X665814Y505694D01*
X665818Y505699D01*
X665822Y505697D01*
X666184Y505847D01*
X666187Y505852D01*
X666191Y505850D01*
X666525Y506055D01*
X666527Y506060D01*
X666531Y506060D01*
X666830Y506315D01*
X666831Y506320D01*
X666835Y506320D01*
X667090Y506619D01*
X667091Y506625D01*
X667095Y506625D01*
X667300Y506959D01*
X667299Y506965D01*
X667304Y506966D01*
X667454Y507328D01*
X667453Y507330D01*
X667454Y507330D01*
X667452Y507333D01*
X667452Y507334D01*
X667456Y507336D01*
X667547Y507718D01*
X667545Y507723D01*
X667547Y507724D01*
X667548Y507725D01*
X667579Y508116D01*
X667577Y508119D01*
X667579Y508120D01*
X667579Y513920D01*
X667577Y513922D01*
X667579Y513924D01*
X667548Y514315D01*
X667544Y514319D01*
X667547Y514322D01*
X667456Y514704D01*
X667451Y514708D01*
X667454Y514712D01*
X667304Y515074D01*
X667298Y515077D01*
X667300Y515081D01*
X667095Y515415D01*
X667090Y515417D01*
X667090Y515421D01*
X666835Y515720D01*
X666830Y515721D01*
X666830Y515725D01*
X666531Y515980D01*
X666525Y515981D01*
X666525Y515985D01*
X666191Y516190D01*
X666185Y516189D01*
X666184Y516194D01*
X665822Y516344D01*
X665816Y516342D01*
X665814Y516346D01*
X665432Y516437D01*
X665427Y516435D01*
X665425Y516438D01*
X665034Y516469D01*
X665031Y516467D01*
X665030Y516469D01*
X652839Y516438D01*
X652832Y516433D01*
X652828Y516437D01*
X652446Y516346D01*
X652442Y516341D01*
X652438Y516344D01*
X652076Y516194D01*
X652073Y516188D01*
X652069Y516190D01*
X651735Y515985D01*
X651733Y515980D01*
X651729Y515980D01*
X651430Y515725D01*
X651429Y515720D01*
X651425Y515720D01*
X651170Y515421D01*
X651169Y515415D01*
X651165Y515415D01*
X650960Y515081D01*
X650961Y515075D01*
X650957Y515074D01*
X650807Y514712D01*
X650808Y514706D01*
X650804Y514704D01*
X650713Y514322D01*
X650715Y514317D01*
X650712Y514315D01*
X650681Y513924D01*
X650683Y513921D01*
X650681Y513920D01*
X650681Y508120D01*
X650683Y508118D01*
X650681Y508116D01*
X650712Y507725D01*
X650716Y507721D01*
X650713Y507718D01*
X650804Y507336D01*
X650809Y507332D01*
X650807Y507328D01*
X650957Y506966D01*
X650962Y506963D01*
X650960Y506959D01*
X651165Y506625D01*
X651170Y506623D01*
X651170Y506619D01*
X651425Y506320D01*
X651430Y506319D01*
X651430Y506315D01*
X651729Y506060D01*
X651735Y506059D01*
X651735Y506055D01*
X652069Y505850D01*
X652075Y505851D01*
X652076Y505847D01*
X652438Y505697D01*
X652444Y505698D01*
X652446Y505694D01*
X652828Y505603D01*
X652833Y505605D01*
X652835Y505602D01*
X653226Y505571D01*
X653229Y505573D01*
X653230Y505571D01*
X665421Y505602D01*
G37*
G36*
X665421Y476702D02*
X665421Y476702D01*
X665428Y476707D01*
X665432Y476703D01*
X665814Y476794D01*
X665818Y476799D01*
X665822Y476797D01*
X666184Y476947D01*
X666187Y476952D01*
X666191Y476950D01*
X666525Y477155D01*
X666527Y477160D01*
X666531Y477160D01*
X666830Y477415D01*
X666831Y477420D01*
X666835Y477420D01*
X667090Y477719D01*
X667091Y477725D01*
X667095Y477725D01*
X667300Y478059D01*
X667299Y478065D01*
X667304Y478066D01*
X667454Y478428D01*
X667453Y478430D01*
X667454Y478430D01*
X667452Y478433D01*
X667452Y478434D01*
X667456Y478436D01*
X667547Y478818D01*
X667545Y478823D01*
X667547Y478824D01*
X667548Y478825D01*
X667579Y479216D01*
X667577Y479219D01*
X667579Y479220D01*
X667579Y485020D01*
X667577Y485022D01*
X667579Y485024D01*
X667548Y485415D01*
X667544Y485419D01*
X667547Y485422D01*
X667456Y485804D01*
X667451Y485808D01*
X667454Y485812D01*
X667304Y486174D01*
X667298Y486177D01*
X667300Y486181D01*
X667095Y486515D01*
X667090Y486517D01*
X667090Y486521D01*
X666835Y486820D01*
X666830Y486821D01*
X666830Y486825D01*
X666531Y487080D01*
X666525Y487081D01*
X666525Y487085D01*
X666191Y487290D01*
X666185Y487289D01*
X666184Y487294D01*
X665822Y487444D01*
X665816Y487442D01*
X665814Y487446D01*
X665432Y487537D01*
X665427Y487535D01*
X665425Y487538D01*
X665034Y487569D01*
X665031Y487567D01*
X665030Y487569D01*
X652839Y487538D01*
X652832Y487533D01*
X652828Y487537D01*
X652446Y487446D01*
X652442Y487441D01*
X652438Y487444D01*
X652076Y487294D01*
X652073Y487288D01*
X652069Y487290D01*
X651735Y487085D01*
X651733Y487080D01*
X651729Y487080D01*
X651430Y486825D01*
X651429Y486820D01*
X651425Y486820D01*
X651170Y486521D01*
X651169Y486515D01*
X651165Y486515D01*
X650960Y486181D01*
X650961Y486175D01*
X650957Y486174D01*
X650807Y485812D01*
X650808Y485806D01*
X650804Y485804D01*
X650713Y485422D01*
X650715Y485417D01*
X650712Y485415D01*
X650681Y485024D01*
X650683Y485021D01*
X650681Y485020D01*
X650681Y479220D01*
X650683Y479218D01*
X650681Y479216D01*
X650712Y478825D01*
X650716Y478821D01*
X650713Y478818D01*
X650804Y478436D01*
X650809Y478432D01*
X650807Y478428D01*
X650957Y478066D01*
X650962Y478063D01*
X650960Y478059D01*
X651165Y477725D01*
X651170Y477723D01*
X651170Y477719D01*
X651425Y477420D01*
X651430Y477419D01*
X651430Y477415D01*
X651729Y477160D01*
X651735Y477159D01*
X651735Y477155D01*
X652069Y476950D01*
X652075Y476951D01*
X652076Y476947D01*
X652438Y476797D01*
X652444Y476798D01*
X652446Y476794D01*
X652828Y476703D01*
X652833Y476705D01*
X652835Y476702D01*
X653226Y476671D01*
X653229Y476673D01*
X653230Y476671D01*
X665421Y476702D01*
G37*
G36*
X656531Y351932D02*
X656531Y351932D01*
X656538Y351937D01*
X656542Y351933D01*
X656924Y352024D01*
X656928Y352029D01*
X656932Y352027D01*
X657294Y352177D01*
X657297Y352182D01*
X657301Y352180D01*
X657635Y352385D01*
X657637Y352390D01*
X657641Y352390D01*
X657940Y352645D01*
X657941Y352650D01*
X657945Y352650D01*
X658200Y352949D01*
X658201Y352955D01*
X658205Y352955D01*
X658410Y353289D01*
X658409Y353295D01*
X658414Y353296D01*
X658564Y353658D01*
X658563Y353660D01*
X658564Y353660D01*
X658562Y353663D01*
X658562Y353664D01*
X658566Y353666D01*
X658657Y354048D01*
X658655Y354053D01*
X658657Y354054D01*
X658658Y354055D01*
X658689Y354446D01*
X658687Y354449D01*
X658689Y354450D01*
X658689Y360250D01*
X658687Y360252D01*
X658689Y360254D01*
X658658Y360645D01*
X658654Y360649D01*
X658657Y360652D01*
X658566Y361034D01*
X658561Y361038D01*
X658564Y361042D01*
X658414Y361404D01*
X658408Y361407D01*
X658410Y361411D01*
X658205Y361745D01*
X658200Y361747D01*
X658200Y361751D01*
X657945Y362050D01*
X657940Y362051D01*
X657940Y362055D01*
X657641Y362310D01*
X657635Y362311D01*
X657635Y362315D01*
X657301Y362520D01*
X657295Y362519D01*
X657294Y362524D01*
X656932Y362674D01*
X656926Y362672D01*
X656924Y362676D01*
X656542Y362767D01*
X656537Y362765D01*
X656535Y362768D01*
X656144Y362799D01*
X656141Y362797D01*
X656140Y362799D01*
X643949Y362768D01*
X643942Y362763D01*
X643938Y362767D01*
X643556Y362676D01*
X643552Y362671D01*
X643548Y362674D01*
X643186Y362524D01*
X643183Y362518D01*
X643179Y362520D01*
X642845Y362315D01*
X642843Y362310D01*
X642839Y362310D01*
X642540Y362055D01*
X642539Y362050D01*
X642535Y362050D01*
X642280Y361751D01*
X642279Y361745D01*
X642275Y361745D01*
X642070Y361411D01*
X642071Y361405D01*
X642067Y361404D01*
X641917Y361042D01*
X641918Y361036D01*
X641914Y361034D01*
X641823Y360652D01*
X641825Y360647D01*
X641822Y360645D01*
X641791Y360254D01*
X641793Y360251D01*
X641791Y360250D01*
X641791Y354450D01*
X641793Y354448D01*
X641791Y354446D01*
X641822Y354055D01*
X641826Y354051D01*
X641823Y354048D01*
X641914Y353666D01*
X641919Y353662D01*
X641917Y353658D01*
X642067Y353296D01*
X642072Y353293D01*
X642070Y353289D01*
X642275Y352955D01*
X642280Y352953D01*
X642280Y352949D01*
X642535Y352650D01*
X642540Y352649D01*
X642540Y352645D01*
X642839Y352390D01*
X642845Y352389D01*
X642845Y352385D01*
X643179Y352180D01*
X643185Y352181D01*
X643186Y352177D01*
X643548Y352027D01*
X643554Y352028D01*
X643556Y352024D01*
X643938Y351933D01*
X643943Y351935D01*
X643945Y351932D01*
X644336Y351901D01*
X644339Y351903D01*
X644340Y351901D01*
X656531Y351932D01*
G37*
G36*
X656531Y323032D02*
X656531Y323032D01*
X656538Y323037D01*
X656542Y323033D01*
X656924Y323124D01*
X656928Y323129D01*
X656932Y323127D01*
X657294Y323277D01*
X657297Y323282D01*
X657301Y323280D01*
X657635Y323485D01*
X657637Y323490D01*
X657641Y323490D01*
X657940Y323745D01*
X657941Y323750D01*
X657945Y323750D01*
X658200Y324049D01*
X658201Y324055D01*
X658205Y324055D01*
X658410Y324389D01*
X658409Y324395D01*
X658414Y324396D01*
X658564Y324758D01*
X658563Y324760D01*
X658564Y324760D01*
X658562Y324763D01*
X658562Y324764D01*
X658566Y324766D01*
X658657Y325148D01*
X658655Y325153D01*
X658657Y325154D01*
X658658Y325155D01*
X658689Y325546D01*
X658687Y325549D01*
X658689Y325550D01*
X658689Y331350D01*
X658687Y331352D01*
X658689Y331354D01*
X658658Y331745D01*
X658654Y331749D01*
X658657Y331752D01*
X658566Y332134D01*
X658561Y332138D01*
X658564Y332142D01*
X658414Y332504D01*
X658408Y332507D01*
X658410Y332511D01*
X658205Y332845D01*
X658200Y332847D01*
X658200Y332851D01*
X657945Y333150D01*
X657940Y333151D01*
X657940Y333155D01*
X657641Y333410D01*
X657635Y333411D01*
X657635Y333415D01*
X657301Y333620D01*
X657295Y333619D01*
X657294Y333624D01*
X656932Y333774D01*
X656926Y333772D01*
X656924Y333776D01*
X656542Y333867D01*
X656537Y333865D01*
X656535Y333868D01*
X656144Y333899D01*
X656141Y333897D01*
X656140Y333899D01*
X643949Y333868D01*
X643942Y333863D01*
X643938Y333867D01*
X643556Y333776D01*
X643552Y333771D01*
X643548Y333774D01*
X643186Y333624D01*
X643183Y333618D01*
X643179Y333620D01*
X642845Y333415D01*
X642843Y333410D01*
X642839Y333410D01*
X642540Y333155D01*
X642539Y333150D01*
X642535Y333150D01*
X642280Y332851D01*
X642279Y332845D01*
X642275Y332845D01*
X642070Y332511D01*
X642071Y332505D01*
X642067Y332504D01*
X641917Y332142D01*
X641918Y332136D01*
X641914Y332134D01*
X641823Y331752D01*
X641825Y331747D01*
X641822Y331745D01*
X641791Y331354D01*
X641793Y331351D01*
X641791Y331350D01*
X641791Y325550D01*
X641793Y325548D01*
X641791Y325546D01*
X641822Y325155D01*
X641826Y325151D01*
X641823Y325148D01*
X641914Y324766D01*
X641919Y324762D01*
X641917Y324758D01*
X642067Y324396D01*
X642072Y324393D01*
X642070Y324389D01*
X642275Y324055D01*
X642280Y324053D01*
X642280Y324049D01*
X642535Y323750D01*
X642540Y323749D01*
X642540Y323745D01*
X642839Y323490D01*
X642845Y323489D01*
X642845Y323485D01*
X643179Y323280D01*
X643185Y323281D01*
X643186Y323277D01*
X643548Y323127D01*
X643554Y323128D01*
X643556Y323124D01*
X643938Y323033D01*
X643943Y323035D01*
X643945Y323032D01*
X644336Y323001D01*
X644339Y323003D01*
X644340Y323001D01*
X656531Y323032D01*
G37*
D10*
X66040Y655980D03*
X66040Y674980D03*
D11*
X134010Y656750D03*
X153010Y656750D03*
X143510Y677750D03*
D12*
X327660Y501810D03*
X327660Y521810D03*
D13*
X282100Y501650D03*
X302100Y501650D03*
D10*
X143510Y211430D03*
X143510Y192430D03*
X118110Y211430D03*
X118110Y192430D03*
D14*
X306460Y647700D03*
X306460Y585700D03*
X196460Y585700D03*
X196460Y647700D03*
D15*
X275590Y402463D03*
X262890Y402463D03*
X250190Y402463D03*
X237490Y402463D03*
X224790Y402463D03*
X212090Y402463D03*
X199390Y402463D03*
X186690Y402463D03*
X186690Y308737D03*
X199390Y308737D03*
X212090Y308737D03*
X224790Y308737D03*
X237490Y308737D03*
X250190Y308737D03*
X262890Y308737D03*
X275590Y308737D03*
D16*
X238370Y281940D03*
X221370Y281940D03*
D17*
X82550Y34490D03*
X82550Y193390D03*
D18*
X31410Y632460D03*
X52410Y632460D03*
D19*
X682163Y441350D03*
X682163Y450850D03*
X682163Y460350D03*
X656417Y460350D03*
X656417Y450850D03*
X656417Y441350D03*
D10*
X707390Y441300D03*
X707390Y422300D03*
X631190Y386740D03*
X631190Y405740D03*
D16*
X634340Y463550D03*
X615340Y463550D03*
D20*
X669290Y411900D03*
X669290Y388200D03*
D21*
X639880Y434340D03*
X614880Y434340D03*
D18*
X678180Y295570D03*
X678180Y316570D03*
D22*
X605360Y494030D03*
X634160Y494030D03*
D10*
X580390Y490830D03*
X580390Y471830D03*
D23*
X892810Y514350D03*
X880110Y514350D03*
X867410Y514350D03*
X854710Y514350D03*
X842010Y514350D03*
X829310Y514350D03*
X816610Y514350D03*
X803910Y514350D03*
X791210Y514350D03*
X778510Y514350D03*
X892810Y421350D03*
X880110Y421350D03*
X867410Y421350D03*
X854710Y421350D03*
X842010Y421350D03*
X829310Y421350D03*
X816610Y421350D03*
X803910Y421350D03*
X791210Y421350D03*
X778510Y421350D03*
X892810Y381000D03*
X880110Y381000D03*
X867410Y381000D03*
X854710Y381000D03*
X842010Y381000D03*
X829310Y381000D03*
X816610Y381000D03*
X803910Y381000D03*
X791210Y381000D03*
X778510Y381000D03*
X892810Y288000D03*
X880110Y288000D03*
X867410Y288000D03*
X854710Y288000D03*
X842010Y288000D03*
X829310Y288000D03*
X816610Y288000D03*
X803910Y288000D03*
X791210Y288000D03*
X778510Y288000D03*
X892810Y247650D03*
X880110Y247650D03*
X867410Y247650D03*
X854710Y247650D03*
X842010Y247650D03*
X829310Y247650D03*
X816610Y247650D03*
X803910Y247650D03*
X791210Y247650D03*
X778510Y247650D03*
X892810Y154650D03*
X880110Y154650D03*
X867410Y154650D03*
X854710Y154650D03*
X842010Y154650D03*
X829310Y154650D03*
X816610Y154650D03*
X803910Y154650D03*
X791210Y154650D03*
X778510Y154650D03*
X892810Y114300D03*
X880110Y114300D03*
X867410Y114300D03*
X854710Y114300D03*
X842010Y114300D03*
X829310Y114300D03*
X816610Y114300D03*
X803910Y114300D03*
X791210Y114300D03*
X778510Y114300D03*
X892810Y21300D03*
X880110Y21300D03*
X867410Y21300D03*
X854710Y21300D03*
X842010Y21300D03*
X829310Y21300D03*
X816610Y21300D03*
X803910Y21300D03*
X791210Y21300D03*
X778510Y21300D03*
D24*
X673100Y544830D03*
X685800Y544830D03*
X698500Y544830D03*
X711200Y544830D03*
X673100Y602330D03*
X685800Y602330D03*
X698500Y602330D03*
X711200Y602330D03*
D25*
X692150Y574040D03*
D26*
X555510Y558800D03*
X620510Y558800D03*
D27*
X919480Y671830D03*
X919480Y659130D03*
X919480Y646430D03*
X919480Y633730D03*
X976980Y671830D03*
X976980Y659130D03*
X976980Y646430D03*
X976980Y633730D03*
D28*
X948690Y652780D03*
D29*
X855370Y586770D03*
X864870Y586770D03*
X874370Y586770D03*
X855370Y608770D03*
X874370Y608770D03*
D30*
X831880Y652120D03*
X831880Y642620D03*
X831880Y633120D03*
X853880Y652120D03*
X853880Y633120D03*
D12*
X836930Y608170D03*
X836930Y588170D03*
D13*
X853280Y670560D03*
X833280Y670560D03*
D16*
X301600Y525780D03*
X282600Y525780D03*
D10*
X924560Y516230D03*
X924560Y497230D03*
X924560Y390550D03*
X924560Y409550D03*
X924560Y257200D03*
X924560Y276200D03*
X740410Y606400D03*
X740410Y587400D03*
D16*
X972160Y607060D03*
X953160Y607060D03*
D10*
X894080Y648310D03*
X894080Y629310D03*
D16*
X894690Y670560D03*
X875690Y670560D03*
D10*
X740410Y559410D03*
X740410Y540410D03*
X923290Y587400D03*
X923290Y606400D03*
D16*
X48870Y457200D03*
X29870Y457200D03*
D31*
X373972Y561112D02*
X373972Y575788D01*
X377048Y575788D01*
X377048Y561112D01*
X373972Y561112D01*
X373972Y562086D02*
X377048Y562086D01*
X377048Y563060D02*
X373972Y563060D01*
X373972Y564034D02*
X377048Y564034D01*
X377048Y565008D02*
X373972Y565008D01*
X373972Y565982D02*
X377048Y565982D01*
X377048Y566956D02*
X373972Y566956D01*
X373972Y567930D02*
X377048Y567930D01*
X377048Y568904D02*
X373972Y568904D01*
X373972Y569878D02*
X377048Y569878D01*
X377048Y570852D02*
X373972Y570852D01*
X373972Y571826D02*
X377048Y571826D01*
X377048Y572800D02*
X373972Y572800D01*
X373972Y573774D02*
X377048Y573774D01*
X377048Y574748D02*
X373972Y574748D01*
X373972Y575722D02*
X377048Y575722D01*
X367472Y575788D02*
X367472Y561112D01*
X367472Y575788D02*
X370548Y575788D01*
X370548Y561112D01*
X367472Y561112D01*
X367472Y562086D02*
X370548Y562086D01*
X370548Y563060D02*
X367472Y563060D01*
X367472Y564034D02*
X370548Y564034D01*
X370548Y565008D02*
X367472Y565008D01*
X367472Y565982D02*
X370548Y565982D01*
X370548Y566956D02*
X367472Y566956D01*
X367472Y567930D02*
X370548Y567930D01*
X370548Y568904D02*
X367472Y568904D01*
X367472Y569878D02*
X370548Y569878D01*
X370548Y570852D02*
X367472Y570852D01*
X367472Y571826D02*
X370548Y571826D01*
X370548Y572800D02*
X367472Y572800D01*
X367472Y573774D02*
X370548Y573774D01*
X370548Y574748D02*
X367472Y574748D01*
X367472Y575722D02*
X370548Y575722D01*
X360972Y575788D02*
X360972Y561112D01*
X360972Y575788D02*
X364048Y575788D01*
X364048Y561112D01*
X360972Y561112D01*
X360972Y562086D02*
X364048Y562086D01*
X364048Y563060D02*
X360972Y563060D01*
X360972Y564034D02*
X364048Y564034D01*
X364048Y565008D02*
X360972Y565008D01*
X360972Y565982D02*
X364048Y565982D01*
X364048Y566956D02*
X360972Y566956D01*
X360972Y567930D02*
X364048Y567930D01*
X364048Y568904D02*
X360972Y568904D01*
X360972Y569878D02*
X364048Y569878D01*
X364048Y570852D02*
X360972Y570852D01*
X360972Y571826D02*
X364048Y571826D01*
X364048Y572800D02*
X360972Y572800D01*
X360972Y573774D02*
X364048Y573774D01*
X364048Y574748D02*
X360972Y574748D01*
X360972Y575722D02*
X364048Y575722D01*
X354472Y575788D02*
X354472Y561112D01*
X354472Y575788D02*
X357548Y575788D01*
X357548Y561112D01*
X354472Y561112D01*
X354472Y562086D02*
X357548Y562086D01*
X357548Y563060D02*
X354472Y563060D01*
X354472Y564034D02*
X357548Y564034D01*
X357548Y565008D02*
X354472Y565008D01*
X354472Y565982D02*
X357548Y565982D01*
X357548Y566956D02*
X354472Y566956D01*
X354472Y567930D02*
X357548Y567930D01*
X357548Y568904D02*
X354472Y568904D01*
X354472Y569878D02*
X357548Y569878D01*
X357548Y570852D02*
X354472Y570852D01*
X354472Y571826D02*
X357548Y571826D01*
X357548Y572800D02*
X354472Y572800D01*
X354472Y573774D02*
X357548Y573774D01*
X357548Y574748D02*
X354472Y574748D01*
X354472Y575722D02*
X357548Y575722D01*
X354472Y535388D02*
X354472Y520712D01*
X354472Y535388D02*
X357548Y535388D01*
X357548Y520712D01*
X354472Y520712D01*
X354472Y521686D02*
X357548Y521686D01*
X357548Y522660D02*
X354472Y522660D01*
X354472Y523634D02*
X357548Y523634D01*
X357548Y524608D02*
X354472Y524608D01*
X354472Y525582D02*
X357548Y525582D01*
X357548Y526556D02*
X354472Y526556D01*
X354472Y527530D02*
X357548Y527530D01*
X357548Y528504D02*
X354472Y528504D01*
X354472Y529478D02*
X357548Y529478D01*
X357548Y530452D02*
X354472Y530452D01*
X354472Y531426D02*
X357548Y531426D01*
X357548Y532400D02*
X354472Y532400D01*
X354472Y533374D02*
X357548Y533374D01*
X357548Y534348D02*
X354472Y534348D01*
X354472Y535322D02*
X357548Y535322D01*
X360972Y535388D02*
X360972Y520712D01*
X360972Y535388D02*
X364048Y535388D01*
X364048Y520712D01*
X360972Y520712D01*
X360972Y521686D02*
X364048Y521686D01*
X364048Y522660D02*
X360972Y522660D01*
X360972Y523634D02*
X364048Y523634D01*
X364048Y524608D02*
X360972Y524608D01*
X360972Y525582D02*
X364048Y525582D01*
X364048Y526556D02*
X360972Y526556D01*
X360972Y527530D02*
X364048Y527530D01*
X364048Y528504D02*
X360972Y528504D01*
X360972Y529478D02*
X364048Y529478D01*
X364048Y530452D02*
X360972Y530452D01*
X360972Y531426D02*
X364048Y531426D01*
X364048Y532400D02*
X360972Y532400D01*
X360972Y533374D02*
X364048Y533374D01*
X364048Y534348D02*
X360972Y534348D01*
X360972Y535322D02*
X364048Y535322D01*
X367472Y535388D02*
X367472Y520712D01*
X367472Y535388D02*
X370548Y535388D01*
X370548Y520712D01*
X367472Y520712D01*
X367472Y521686D02*
X370548Y521686D01*
X370548Y522660D02*
X367472Y522660D01*
X367472Y523634D02*
X370548Y523634D01*
X370548Y524608D02*
X367472Y524608D01*
X367472Y525582D02*
X370548Y525582D01*
X370548Y526556D02*
X367472Y526556D01*
X367472Y527530D02*
X370548Y527530D01*
X370548Y528504D02*
X367472Y528504D01*
X367472Y529478D02*
X370548Y529478D01*
X370548Y530452D02*
X367472Y530452D01*
X367472Y531426D02*
X370548Y531426D01*
X370548Y532400D02*
X367472Y532400D01*
X367472Y533374D02*
X370548Y533374D01*
X370548Y534348D02*
X367472Y534348D01*
X367472Y535322D02*
X370548Y535322D01*
X373972Y535388D02*
X373972Y520712D01*
X373972Y535388D02*
X377048Y535388D01*
X377048Y520712D01*
X373972Y520712D01*
X373972Y521686D02*
X377048Y521686D01*
X377048Y522660D02*
X373972Y522660D01*
X373972Y523634D02*
X377048Y523634D01*
X377048Y524608D02*
X373972Y524608D01*
X373972Y525582D02*
X377048Y525582D01*
X377048Y526556D02*
X373972Y526556D01*
X373972Y527530D02*
X377048Y527530D01*
X377048Y528504D02*
X373972Y528504D01*
X373972Y529478D02*
X377048Y529478D01*
X377048Y530452D02*
X373972Y530452D01*
X373972Y531426D02*
X377048Y531426D01*
X377048Y532400D02*
X373972Y532400D01*
X373972Y533374D02*
X377048Y533374D01*
X377048Y534348D02*
X373972Y534348D01*
X373972Y535322D02*
X377048Y535322D01*
D32*
X410050Y593090D03*
X410050Y605790D03*
X410050Y618490D03*
X410050Y631190D03*
D33*
X352000Y631190D03*
X352000Y618490D03*
X352000Y593090D03*
X352000Y605790D03*
D34*
X396000Y620640D03*
X396000Y603640D03*
X379000Y603640D03*
X379000Y620640D03*
D35*
X467360Y574450D03*
X467360Y530450D03*
D36*
X403000Y669290D03*
X359000Y669290D03*
D37*
X430750Y524510D03*
X394750Y524510D03*
D16*
X356260Y501650D03*
X375260Y501650D03*
X418440Y501650D03*
X399440Y501650D03*
D10*
X429260Y568300D03*
X429260Y549300D03*
X924560Y125120D03*
X924560Y144120D03*
D38*
X343200Y305990D03*
X355700Y305990D03*
D39*
X368200Y308657D03*
D38*
X380700Y305990D03*
X380700Y359490D03*
X368200Y359490D03*
X355700Y359490D03*
X343200Y359490D03*
D10*
X410210Y341240D03*
X410210Y324240D03*
D40*
X314960Y326390D03*
X314960Y341630D03*
D13*
X410370Y300990D03*
X430370Y300990D03*
D10*
X321310Y410870D03*
X321310Y429870D03*
X295910Y410870D03*
X295910Y429870D03*
D26*
X555510Y648970D03*
X620510Y648970D03*
D16*
X253340Y429260D03*
X234340Y429260D03*
D10*
X373380Y422860D03*
X373380Y403860D03*
D21*
X606490Y346710D03*
X630490Y337210D03*
X630490Y356210D03*
D41*
X492100Y635173D03*
X482600Y635173D03*
X473100Y635173D03*
X473100Y609427D03*
X482600Y609427D03*
X492100Y609427D03*
D42*
X608745Y321570D03*
X608745Y303270D03*
X628235Y312420D03*
D43*
X460000Y682845D03*
X441700Y682845D03*
X450850Y663355D03*
D44*
X487680Y382970D03*
X497180Y406970D03*
X478180Y406970D03*
D42*
X447455Y402850D03*
X447455Y384550D03*
X466945Y393700D03*
D31*
X610392Y107722D02*
X625068Y107722D01*
X610392Y107722D02*
X610392Y110798D01*
X625068Y110798D01*
X625068Y107722D01*
X625068Y108696D02*
X610392Y108696D01*
X610392Y109670D02*
X625068Y109670D01*
X625068Y110644D02*
X610392Y110644D01*
X610392Y101222D02*
X625068Y101222D01*
X610392Y101222D02*
X610392Y104298D01*
X625068Y104298D01*
X625068Y101222D01*
X625068Y102196D02*
X610392Y102196D01*
X610392Y103170D02*
X625068Y103170D01*
X625068Y104144D02*
X610392Y104144D01*
X610392Y94722D02*
X625068Y94722D01*
X610392Y94722D02*
X610392Y97798D01*
X625068Y97798D01*
X625068Y94722D01*
X625068Y95696D02*
X610392Y95696D01*
X610392Y96670D02*
X625068Y96670D01*
X625068Y97644D02*
X610392Y97644D01*
X610392Y88222D02*
X625068Y88222D01*
X610392Y88222D02*
X610392Y91298D01*
X625068Y91298D01*
X625068Y88222D01*
X625068Y89196D02*
X610392Y89196D01*
X610392Y90170D02*
X625068Y90170D01*
X625068Y91144D02*
X610392Y91144D01*
X610392Y81722D02*
X625068Y81722D01*
X610392Y81722D02*
X610392Y84798D01*
X625068Y84798D01*
X625068Y81722D01*
X625068Y82696D02*
X610392Y82696D01*
X610392Y83670D02*
X625068Y83670D01*
X625068Y84644D02*
X610392Y84644D01*
X610392Y75222D02*
X625068Y75222D01*
X610392Y75222D02*
X610392Y78298D01*
X625068Y78298D01*
X625068Y75222D01*
X625068Y76196D02*
X610392Y76196D01*
X610392Y77170D02*
X625068Y77170D01*
X625068Y78144D02*
X610392Y78144D01*
X610392Y68722D02*
X625068Y68722D01*
X610392Y68722D02*
X610392Y71798D01*
X625068Y71798D01*
X625068Y68722D01*
X625068Y69696D02*
X610392Y69696D01*
X610392Y70670D02*
X625068Y70670D01*
X625068Y71644D02*
X610392Y71644D01*
X610392Y62222D02*
X625068Y62222D01*
X610392Y62222D02*
X610392Y65298D01*
X625068Y65298D01*
X625068Y62222D01*
X625068Y63196D02*
X610392Y63196D01*
X610392Y64170D02*
X625068Y64170D01*
X625068Y65144D02*
X610392Y65144D01*
X610392Y55722D02*
X625068Y55722D01*
X610392Y55722D02*
X610392Y58798D01*
X625068Y58798D01*
X625068Y55722D01*
X625068Y56696D02*
X610392Y56696D01*
X610392Y57670D02*
X625068Y57670D01*
X625068Y58644D02*
X610392Y58644D01*
X610392Y49222D02*
X625068Y49222D01*
X610392Y49222D02*
X610392Y52298D01*
X625068Y52298D01*
X625068Y49222D01*
X625068Y50196D02*
X610392Y50196D01*
X610392Y51170D02*
X625068Y51170D01*
X625068Y52144D02*
X610392Y52144D01*
X667792Y49222D02*
X682468Y49222D01*
X667792Y49222D02*
X667792Y52298D01*
X682468Y52298D01*
X682468Y49222D01*
X682468Y50196D02*
X667792Y50196D01*
X667792Y51170D02*
X682468Y51170D01*
X682468Y52144D02*
X667792Y52144D01*
X667792Y55722D02*
X682468Y55722D01*
X667792Y55722D02*
X667792Y58798D01*
X682468Y58798D01*
X682468Y55722D01*
X682468Y56696D02*
X667792Y56696D01*
X667792Y57670D02*
X682468Y57670D01*
X682468Y58644D02*
X667792Y58644D01*
X667792Y62222D02*
X682468Y62222D01*
X667792Y62222D02*
X667792Y65298D01*
X682468Y65298D01*
X682468Y62222D01*
X682468Y63196D02*
X667792Y63196D01*
X667792Y64170D02*
X682468Y64170D01*
X682468Y65144D02*
X667792Y65144D01*
X667792Y68722D02*
X682468Y68722D01*
X667792Y68722D02*
X667792Y71798D01*
X682468Y71798D01*
X682468Y68722D01*
X682468Y69696D02*
X667792Y69696D01*
X667792Y70670D02*
X682468Y70670D01*
X682468Y71644D02*
X667792Y71644D01*
X667792Y75222D02*
X682468Y75222D01*
X667792Y75222D02*
X667792Y78298D01*
X682468Y78298D01*
X682468Y75222D01*
X682468Y76196D02*
X667792Y76196D01*
X667792Y77170D02*
X682468Y77170D01*
X682468Y78144D02*
X667792Y78144D01*
X667792Y81722D02*
X682468Y81722D01*
X667792Y81722D02*
X667792Y84798D01*
X682468Y84798D01*
X682468Y81722D01*
X682468Y82696D02*
X667792Y82696D01*
X667792Y83670D02*
X682468Y83670D01*
X682468Y84644D02*
X667792Y84644D01*
X667792Y88222D02*
X682468Y88222D01*
X667792Y88222D02*
X667792Y91298D01*
X682468Y91298D01*
X682468Y88222D01*
X682468Y89196D02*
X667792Y89196D01*
X667792Y90170D02*
X682468Y90170D01*
X682468Y91144D02*
X667792Y91144D01*
X667792Y94722D02*
X682468Y94722D01*
X667792Y94722D02*
X667792Y97798D01*
X682468Y97798D01*
X682468Y94722D01*
X682468Y95696D02*
X667792Y95696D01*
X667792Y96670D02*
X682468Y96670D01*
X682468Y97644D02*
X667792Y97644D01*
X667792Y101222D02*
X682468Y101222D01*
X667792Y101222D02*
X667792Y104298D01*
X682468Y104298D01*
X682468Y101222D01*
X682468Y102196D02*
X667792Y102196D01*
X667792Y103170D02*
X682468Y103170D01*
X682468Y104144D02*
X667792Y104144D01*
X667792Y107722D02*
X682468Y107722D01*
X667792Y107722D02*
X667792Y110798D01*
X682468Y110798D01*
X682468Y107722D01*
X682468Y108696D02*
X667792Y108696D01*
X667792Y109670D02*
X682468Y109670D01*
X682468Y110644D02*
X667792Y110644D01*
D10*
X727710Y56540D03*
X727710Y75540D03*
X702310Y46380D03*
X702310Y65380D03*
X676910Y339750D03*
X676910Y358750D03*
D13*
X657700Y26670D03*
X637700Y26670D03*
D10*
X631190Y134010D03*
X631190Y153010D03*
X660400Y134010D03*
X660400Y153010D03*
D45*
X162170Y405100D03*
D46*
X164420Y391200D03*
D45*
X162170Y348100D03*
D47*
X53570Y413200D03*
X53570Y402200D03*
X51570Y391200D03*
X53570Y380200D03*
X51570Y369200D03*
X53570Y358200D03*
X57570Y347200D03*
X53570Y336200D03*
D48*
X30670Y421100D03*
X20670Y289600D03*
D16*
X241910Y505460D03*
X222910Y505460D03*
M02*
