G04 EAGLE Gerber RS-274X export*
G75*
%MOMM*%
%FSLAX34Y34*%
%LPD*%
%INSoldermask Bottom*%
%IPPOS*%
%AMOC8*
5,1,8,0,0,1.08239X$1,22.5*%
G01*
%ADD10C,3.403200*%
%ADD11C,1.853200*%
%ADD12C,2.743200*%
%ADD13C,4.013200*%
%ADD14C,1.981200*%
%ADD15R,1.625600X1.625600*%
%ADD16C,1.511200*%
%ADD17C,1.803200*%
%ADD18C,2.003200*%
%ADD19C,1.703200*%
%ADD20R,1.853200X1.853200*%
%ADD21C,1.411200*%
%ADD22C,1.625600*%
%ADD23P,2.556822X8X22.500000*%
%ADD24P,2.034460X8X202.500000*%


D10*
X25000Y25000D03*
X25000Y675000D03*
X1045000Y675000D03*
X1045000Y25000D03*
D11*
X29410Y582300D02*
X29410Y598800D01*
X54410Y598800D02*
X54410Y582300D01*
D12*
X80010Y266700D03*
X80010Y444500D03*
D13*
X537210Y266700D03*
X537210Y444500D03*
D14*
X397510Y254000D03*
X372110Y254000D03*
X346710Y254000D03*
X321310Y254000D03*
X295910Y254000D03*
X270510Y254000D03*
X245110Y254000D03*
X219710Y254000D03*
X194310Y254000D03*
X168910Y254000D03*
X143510Y254000D03*
X118110Y254000D03*
X397510Y457200D03*
X372110Y457200D03*
X346710Y457200D03*
X321310Y457200D03*
X295910Y457200D03*
X270510Y457200D03*
X245110Y457200D03*
X219710Y457200D03*
X194310Y457200D03*
X168910Y457200D03*
X143510Y457200D03*
X118110Y457200D03*
X422910Y457200D03*
X448310Y457200D03*
X473710Y457200D03*
X499110Y457200D03*
D15*
X107950Y664840D03*
D16*
X114490Y644840D02*
X101410Y644840D01*
X101410Y624840D02*
X114490Y624840D01*
X114490Y604840D02*
X101410Y604840D01*
X101410Y584840D02*
X114490Y584840D01*
D17*
X251460Y647700D03*
D18*
X251460Y602700D03*
D19*
X82550Y149990D03*
X82550Y75490D03*
D20*
X668020Y681430D03*
X703020Y681430D03*
X668020Y631430D03*
X703020Y631430D03*
D21*
X105410Y508000D03*
X94488Y497078D03*
X83312Y508000D03*
X72390Y497078D03*
X61468Y508000D03*
X50292Y497078D03*
X39370Y508000D03*
X28448Y497078D03*
D22*
X109610Y539750D03*
X23610Y539750D03*
D16*
X954980Y387350D02*
X968060Y387350D01*
X968060Y367350D02*
X954980Y367350D01*
X954980Y347350D02*
X968060Y347350D01*
X968060Y327350D02*
X954980Y327350D01*
X954980Y307350D02*
X968060Y307350D01*
X968060Y287350D02*
X954980Y287350D01*
X954980Y267350D02*
X968060Y267350D01*
X968060Y247350D02*
X954980Y247350D01*
X954980Y227350D02*
X968060Y227350D01*
X968060Y207350D02*
X954980Y207350D01*
X954980Y187350D02*
X968060Y187350D01*
X968060Y167350D02*
X954980Y167350D01*
X954980Y147350D02*
X968060Y147350D01*
X988060Y147350D02*
X1001140Y147350D01*
X1001140Y167350D02*
X988060Y167350D01*
X988060Y187350D02*
X1001140Y187350D01*
X1001140Y207350D02*
X988060Y207350D01*
X988060Y227350D02*
X1001140Y227350D01*
X1001140Y247350D02*
X988060Y247350D01*
X988060Y267350D02*
X1001140Y267350D01*
X1001140Y287350D02*
X988060Y287350D01*
X988060Y307350D02*
X1001140Y307350D01*
X1001140Y327350D02*
X988060Y327350D01*
X988060Y347350D02*
X1001140Y347350D01*
X1001140Y367350D02*
X988060Y367350D01*
X988060Y387350D02*
X1001140Y387350D01*
X968060Y565150D02*
X954980Y565150D01*
X954980Y545150D02*
X968060Y545150D01*
X968060Y525150D02*
X954980Y525150D01*
X954980Y505150D02*
X968060Y505150D01*
X968060Y485150D02*
X954980Y485150D01*
X954980Y465150D02*
X968060Y465150D01*
X968060Y445150D02*
X954980Y445150D01*
X988060Y445150D02*
X1001140Y445150D01*
X1001140Y465150D02*
X988060Y465150D01*
X988060Y485150D02*
X1001140Y485150D01*
X1001140Y505150D02*
X988060Y505150D01*
X988060Y525150D02*
X1001140Y525150D01*
X1001140Y545150D02*
X988060Y545150D01*
X988060Y565150D02*
X1001140Y565150D01*
D22*
X538480Y104590D03*
X538480Y84590D03*
X538480Y64590D03*
X538480Y44590D03*
X380365Y104590D03*
X380365Y84590D03*
X380365Y64590D03*
X380365Y44590D03*
X457200Y104590D03*
X457200Y84590D03*
X457200Y64590D03*
X457200Y44590D03*
X306070Y104590D03*
X306070Y84590D03*
X306070Y64590D03*
X306070Y44590D03*
X229235Y104590D03*
X229235Y84590D03*
X229235Y64590D03*
X229235Y44590D03*
D23*
X520700Y603250D03*
X698500Y196850D03*
X596900Y196850D03*
X184150Y674370D03*
X146050Y25400D03*
D24*
X181450Y516890D03*
X161450Y516890D03*
M02*
